<svg width="660" height="400" viewBox="0 0 660 400" xmlns="http://www.w3.org/2000/svg">
  <defs>
    <linearGradient id="bg" x1="0" y1="0" x2="0" y2="1">
      <stop offset="0%" stop-color="#1a1a1a"/>
      <stop offset="100%" stop-color="#0d0d0d"/>
    </linearGradient>
    <linearGradient id="arrow" x1="0" y1="0" x2="1" y2="0">
      <stop offset="0%" stop-color="#F5A623" stop-opacity="0.9"/>
      <stop offset="100%" stop-color="#F5A623" stop-opacity="0.4"/>
    </linearGradient>
  </defs>

  <!-- Background -->
  <rect width="660" height="400" fill="url(#bg)"/>

  <!-- Subtle grid dots -->
  <g fill="white" opacity="0.03">
    <circle cx="30" cy="30" r="1"/><circle cx="70" cy="30" r="1"/><circle cx="110" cy="30" r="1"/><circle cx="150" cy="30" r="1"/>
    <circle cx="190" cy="30" r="1"/><circle cx="230" cy="30" r="1"/><circle cx="270" cy="30" r="1"/><circle cx="310" cy="30" r="1"/>
    <circle cx="350" cy="30" r="1"/><circle cx="390" cy="30" r="1"/><circle cx="430" cy="30" r="1"/><circle cx="470" cy="30" r="1"/>
    <circle cx="510" cy="30" r="1"/><circle cx="550" cy="30" r="1"/><circle cx="590" cy="30" r="1"/><circle cx="630" cy="30" r="1"/>
    <circle cx="30" cy="70" r="1"/><circle cx="70" cy="70" r="1"/><circle cx="110" cy="70" r="1"/><circle cx="150" cy="70" r="1"/>
    <circle cx="190" cy="70" r="1"/><circle cx="230" cy="70" r="1"/><circle cx="270" cy="70" r="1"/><circle cx="310" cy="70" r="1"/>
    <circle cx="350" cy="70" r="1"/><circle cx="390" cy="70" r="1"/><circle cx="430" cy="70" r="1"/><circle cx="470" cy="70" r="1"/>
    <circle cx="510" cy="70" r="1"/><circle cx="550" cy="70" r="1"/><circle cx="590" cy="70" r="1"/><circle cx="630" cy="70" r="1"/>
    <circle cx="30" cy="330" r="1"/><circle cx="70" cy="330" r="1"/><circle cx="110" cy="330" r="1"/><circle cx="150" cy="330" r="1"/>
    <circle cx="190" cy="330" r="1"/><circle cx="230" cy="330" r="1"/><circle cx="270" cy="330" r="1"/><circle cx="310" cy="330" r="1"/>
    <circle cx="350" cy="330" r="1"/><circle cx="390" cy="330" r="1"/><circle cx="430" cy="330" r="1"/><circle cx="470" cy="330" r="1"/>
    <circle cx="510" cy="330" r="1"/><circle cx="550" cy="330" r="1"/><circle cx="590" cy="330" r="1"/><circle cx="630" cy="330" r="1"/>
    <circle cx="30" cy="370" r="1"/><circle cx="70" cy="370" r="1"/><circle cx="110" cy="370" r="1"/><circle cx="150" cy="370" r="1"/>
    <circle cx="190" cy="370" r="1"/><circle cx="230" cy="370" r="1"/><circle cx="270" cy="370" r="1"/><circle cx="310" cy="370" r="1"/>
    <circle cx="350" cy="370" r="1"/><circle cx="390" cy="370" r="1"/><circle cx="430" cy="370" r="1"/><circle cx="470" cy="370" r="1"/>
    <circle cx="510" cy="370" r="1"/><circle cx="550" cy="370" r="1"/><circle cx="590" cy="370" r="1"/><circle cx="630" cy="370" r="1"/>
  </g>

  <!-- Dashed arrow from app icon area to Applications area -->
  <line x1="240" y1="200" x2="400" y2="200" stroke="url(#arrow)" stroke-width="2" stroke-dasharray="8,6" stroke-linecap="round"/>
  <polygon points="410,200 398,193 398,207" fill="#F5A623" opacity="0.7"/>

  <!-- Bottom branding -->
  <text x="330" y="360" text-anchor="middle" font-family="-apple-system, BlinkMacSystemFont, 'Helvetica Neue', sans-serif" font-size="11" fill="white" opacity="0.25">
    Drag RunAnywhere to Applications to install
  </text>
</svg>
